<?xml version="1.0" standalone="no"?>
<!DOCTYPE svg PUBLIC "-//W3C//DTD SVG 20010904//EN"
 "http://www.w3.org/TR/2001/REC-SVG-20010904/DTD/svg10.dtd">
<svg version="1.0" xmlns="http://www.w3.org/2000/svg"
 width="24.000000pt" height="24.000000pt" viewBox="0 0 24.000000 24.000000"
 preserveAspectRatio="xMidYMid meet">

<g transform="translate(0.000000,24.000000) scale(0.100000,-0.100000)"
fill="#000000" stroke="none">
<path d="M0 218 c0 -12 1 -19 3 -17 1 2 9 12 16 22 12 14 11 17 -3 17 -10 0
-16 -8 -16 -22z"/>
<path d="M78 217 c26 -27 27 -40 7 -57 -12 -10 -13 -16 0 -39 18 -36 59 -55
75 -35 17 19 30 18 57 -8 l23 -21 0 91 0 92 -92 0 -91 0 21 -23z"/>
<path d="M0 81 l0 -81 81 0 81 0 -48 32 c-27 18 -64 55 -81 82 l-33 48 0 -81z"/>
<path d="M216 15 c-19 -15 -19 -15 2 -15 13 0 22 6 22 15 0 18 0 18 -24 0z"/>
</g>
</svg>
